<?xml version="1.0" standalone="no"?>
<!DOCTYPE svg PUBLIC "-//W3C//DTD SVG 20010904//EN"
 "http://www.w3.org/TR/2001/REC-SVG-20010904/DTD/svg10.dtd">
<svg version="1.0" xmlns="http://www.w3.org/2000/svg"
 width="568.000000pt" height="568.000000pt" viewBox="0 0 568.000000 568.000000"
 preserveAspectRatio="xMidYMid meet">
<metadata>
Created by potrace 1.11, written by Peter Selinger 2001-2013
</metadata>
<g transform="translate(0.000000,568.000000) scale(0.100000,-0.100000)"
fill="#000000" stroke="none">
<path d="M2809 5555 c-238 -65 -409 -176 -489 -319 -25 -44 -36 -55 -63 -59
-18 -2 -40 1 -52 9 -32 23 -81 16 -160 -20 -315 -146 -508 -393 -541 -694 l-7
-63 -61 -31 c-291 -146 -488 -454 -537 -844 -17 -136 -8 -448 15 -495 17 -37
61 -69 94 -69 18 0 20 -8 24 -117 l3 -118 -32 -47 c-143 -213 -107 -503 83
-677 97 -89 222 -141 338 -141 l62 0 43 -87 c129 -264 330 -481 567 -616 41
-23 74 -44 74 -47 -1 -3 -29 -21 -63 -40 -132 -74 -288 -264 -400 -485 -56
-111 -65 -167 -35 -220 9 -16 22 -40 29 -51 9 -18 4 -45 -30 -155 -23 -74 -44
-142 -47 -152 -5 -16 0 -18 51 -15 l58 3 38 122 39 122 51 -24 c28 -12 80 -31
115 -41 l64 -19 -5 -60 c-4 -33 -8 -70 -11 -82 -4 -22 -2 -23 74 -23 l79 0 10
103 c6 56 39 252 74 436 l64 333 27 -33 c15 -19 47 -59 71 -89 102 -130 244
-200 406 -200 158 0 267 50 419 193 57 53 107 97 111 97 5 0 16 -66 25 -147
45 -380 55 -476 62 -580 l7 -113 78 0 78 0 -6 69 -6 68 76 8 c42 3 100 13 129
20 29 8 54 13 56 11 2 -3 14 -42 26 -88 l23 -83 56 -3 c43 -2 56 0 52 10 -2 7
-16 61 -31 120 l-26 107 26 52 c47 95 28 195 -79 415 -105 216 -235 354 -373
395 l-42 12 77 44 c253 144 452 357 584 626 l43 87 62 0 c208 0 419 160 485
369 30 94 29 225 -1 315 l-22 68 26 79 c43 129 58 215 63 367 6 136 7 142 27
142 11 0 39 -12 61 -25 101 -62 195 0 180 119 -9 75 -33 154 -63 209 -35 65
-118 139 -186 168 -48 19 -56 27 -60 53 -2 17 -10 72 -17 121 -6 50 -15 113
-20 140 -4 28 -8 75 -8 106 -1 40 -7 64 -21 82 -23 29 -80 51 -108 43 -16 -5
-23 3 -37 41 -38 101 -87 184 -144 246 -99 105 -213 145 -275 96 l-26 -21 -68
50 c-37 27 -132 89 -212 137 -299 181 -389 260 -460 410 -42 88 -71 115 -124
115 -42 0 -114 -37 -160 -84 l-45 -44 -15 39 c-31 78 -38 129 -25 200 14 76 4
117 -35 142 -38 25 -70 25 -157 2z m406 -1989 c-34 -77 -33 -127 4 -168 29
-33 30 -33 133 -36 56 -2 133 0 169 5 l66 9 -18 -40 c-30 -66 -25 -112 16
-153 l36 -36 85 7 c49 3 122 18 174 35 90 29 90 29 90 7 0 -11 9 -63 20 -115
11 -52 19 -96 17 -97 -2 -2 -19 1 -38 7 -49 15 -170 12 -272 -6 -147 -26 -447
-136 -447 -165 0 -17 46 -30 107 -30 36 0 97 12 167 34 152 47 252 72 375 91
58 9 108 18 112 20 9 6 19 -46 19 -97 0 -45 22 -93 49 -108 11 -5 36 -10 55
-10 l36 0 0 -147 c0 -82 5 -203 10 -271 l10 -122 -41 -118 c-174 -498 -438
-764 -940 -946 -330 -119 -408 -119 -738 0 -263 95 -436 198 -586 349 -160
159 -269 350 -366 635 l-52 155 17 115 c41 279 118 589 140 570 7 -5 68 -18
137 -29 128 -21 208 -41 367 -92 96 -30 188 -38 236 -19 40 15 31 29 -37 60
-239 108 -522 165 -659 131 -21 -5 -38 -5 -38 0 0 30 98 226 158 317 7 10 14
10 38 -3 57 -29 83 -19 169 70 48 50 81 72 165 113 104 50 220 96 220 87 0 -2
-6 -29 -14 -59 -8 -30 -17 -90 -21 -133 -8 -100 10 -141 71 -162 50 -17 56
-14 241 110 147 98 252 159 381 218 86 40 194 81 200 76 1 -1 -9 -27 -23 -59z
m-2103 -1156 c34 -107 113 -267 156 -320 25 -30 35 -34 73 -34 24 0 51 3 60 7
12 6 18 -1 27 -31 7 -22 12 -43 12 -47 0 -18 -111 3 -174 33 -124 58 -215 178
-235 312 -11 69 -2 162 20 215 l12 30 10 -35 c5 -19 23 -78 39 -130z m3538
-75 c-14 -90 -52 -165 -117 -232 -62 -64 -163 -115 -240 -121 -55 -5 -57 -3
-47 36 6 19 11 22 39 16 61 -11 88 14 204 191 59 90 118 184 132 209 l24 46 8
-37 c4 -21 3 -69 -3 -108z m-2144 -1346 c272 -93 384 -93 656 -3 155 51 160
45 53 -62 -188 -187 -380 -253 -527 -181 -31 15 -87 56 -125 91 -70 65 -171
186 -156 186 5 0 49 -14 99 -31z"/>
<path d="M1890 2653 c-148 -78 -161 -292 -22 -388 35 -24 55 -30 110 -33 45
-3 80 1 102 10 126 53 176 196 112 319 -57 110 -190 151 -302 92z"/>
<path d="M3625 2661 c-172 -78 -179 -322 -12 -406 155 -77 328 27 328 198 0
29 -5 65 -11 82 -44 117 -192 178 -305 126z"/>
<path d="M2954 1533 c-30 -37 -33 -38 -98 -38 -59 0 -68 3 -91 28 -29 31 -29
31 -56 17 -22 -12 -24 -47 -5 -72 37 -50 185 -65 261 -28 70 34 101 122 45
128 -18 1 -33 -8 -56 -35z"/>
<path d="M2453 401 c-65 -22 -121 -64 -129 -98 -6 -21 -1 -31 21 -51 27 -22
35 -24 109 -20 89 6 160 31 201 72 32 32 33 79 3 100 -31 22 -139 20 -205 -3z"/>
<path d="M3018 404 c-96 -51 57 -174 215 -174 79 0 111 16 115 56 2 25 -4 37
-32 61 -72 64 -230 94 -298 57z"/>
<path d="M2803 270 c-30 -12 -29 -31 2 -68 21 -25 25 -40 25 -90 l0 -61 -57
-12 c-49 -10 -161 -8 -200 3 -6 2 -13 -1 -15 -7 -6 -17 76 -27 162 -19 107 9
144 9 250 -1 57 -5 99 -4 128 4 52 14 47 32 -5 20 -52 -12 -122 -11 -183 2
l-50 11 0 60 c0 45 5 66 20 85 25 32 26 59 1 73 -23 12 -48 12 -78 0z"/>
</g>
</svg>
